<mxfile host="app.diagrams.net" modified="2023-06-16T15:38:53.356Z" agent="Mozilla/5.0 (Windows NT 10.0; Win64; x64) AppleWebKit/537.36 (KHTML, like Gecko) Chrome/114.0.0.0 Safari/537.36" etag="_9LpJrAvCQgwd3w5Eyn4" version="21.4.0" type="github">
  <diagram id="R2lEEEUBdFMjLlhIrx00" name="Page-1">
    <mxGraphModel dx="1056" dy="1423" grid="1" gridSize="10" guides="1" tooltips="1" connect="1" arrows="1" fold="1" page="1" pageScale="1" pageWidth="850" pageHeight="1100" math="0" shadow="0" extFonts="Permanent Marker^https://fonts.googleapis.com/css?family=Permanent+Marker">
      <root>
        <mxCell id="0" />
        <mxCell id="1" parent="0" />
        <mxCell id="vtOAAltAW5NXbzfte6_x-1" value="User(Adult)" style="swimlane;childLayout=stackLayout;horizontal=1;startSize=50;horizontalStack=0;rounded=1;fontSize=14;fontStyle=0;strokeWidth=2;resizeParent=0;resizeLast=1;shadow=0;dashed=0;align=center;arcSize=4;whiteSpace=wrap;html=1;" vertex="1" parent="1">
          <mxGeometry x="373" y="730" width="160" height="120" as="geometry" />
        </mxCell>
        <mxCell id="vtOAAltAW5NXbzfte6_x-2" value="+ID&lt;br&gt;+Name&lt;br&gt;+RussianName NULL&lt;br&gt;+ContactInfo" style="align=left;strokeColor=none;fillColor=none;spacingLeft=4;fontSize=12;verticalAlign=top;resizable=0;rotatable=0;part=1;html=1;" vertex="1" parent="vtOAAltAW5NXbzfte6_x-1">
          <mxGeometry y="50" width="160" height="70" as="geometry" />
        </mxCell>
        <mxCell id="vtOAAltAW5NXbzfte6_x-26" style="edgeStyle=orthogonalEdgeStyle;rounded=0;orthogonalLoop=1;jettySize=auto;html=1;entryX=0.5;entryY=0;entryDx=0;entryDy=0;endArrow=block;endFill=0;" edge="1" parent="1" source="vtOAAltAW5NXbzfte6_x-3" target="vtOAAltAW5NXbzfte6_x-1">
          <mxGeometry relative="1" as="geometry">
            <Array as="points">
              <mxPoint x="353" y="670" />
              <mxPoint x="453" y="670" />
            </Array>
          </mxGeometry>
        </mxCell>
        <mxCell id="vtOAAltAW5NXbzfte6_x-49" style="edgeStyle=orthogonalEdgeStyle;rounded=0;orthogonalLoop=1;jettySize=auto;html=1;entryX=0;entryY=0.25;entryDx=0;entryDy=0;endArrow=ERzeroToMany;endFill=0;startArrow=ERmandOne;startFill=0;" edge="1" parent="1" source="vtOAAltAW5NXbzfte6_x-3" target="vtOAAltAW5NXbzfte6_x-19">
          <mxGeometry relative="1" as="geometry" />
        </mxCell>
        <mxCell id="vtOAAltAW5NXbzfte6_x-3" value="Teacher" style="swimlane;childLayout=stackLayout;horizontal=1;startSize=50;horizontalStack=0;rounded=1;fontSize=14;fontStyle=0;strokeWidth=2;resizeParent=0;resizeLast=1;shadow=0;dashed=0;align=center;arcSize=4;whiteSpace=wrap;html=1;" vertex="1" parent="1">
          <mxGeometry x="303" y="303" width="100" height="80" as="geometry" />
        </mxCell>
        <mxCell id="vtOAAltAW5NXbzfte6_x-4" value="+BIOInfo" style="align=left;strokeColor=none;fillColor=none;spacingLeft=4;fontSize=12;verticalAlign=top;resizable=0;rotatable=0;part=1;html=1;" vertex="1" parent="vtOAAltAW5NXbzfte6_x-3">
          <mxGeometry y="50" width="100" height="30" as="geometry" />
        </mxCell>
        <mxCell id="vtOAAltAW5NXbzfte6_x-29" style="edgeStyle=orthogonalEdgeStyle;rounded=0;orthogonalLoop=1;jettySize=auto;html=1;entryX=0.5;entryY=0;entryDx=0;entryDy=0;endArrow=ERone;endFill=0;startArrow=ERoneToMany;startFill=0;" edge="1" parent="1" source="vtOAAltAW5NXbzfte6_x-8" target="vtOAAltAW5NXbzfte6_x-24">
          <mxGeometry relative="1" as="geometry" />
        </mxCell>
        <mxCell id="vtOAAltAW5NXbzfte6_x-8" value="Kid" style="swimlane;childLayout=stackLayout;horizontal=1;startSize=50;horizontalStack=0;rounded=1;fontSize=14;fontStyle=0;strokeWidth=2;resizeParent=0;resizeLast=1;shadow=0;dashed=0;align=center;arcSize=4;whiteSpace=wrap;html=1;" vertex="1" parent="1">
          <mxGeometry x="98" y="450" width="160" height="160" as="geometry" />
        </mxCell>
        <mxCell id="vtOAAltAW5NXbzfte6_x-9" value="+ID&lt;br&gt;+Name&lt;br&gt;+RussianName&lt;br&gt;+DateOfBirth&lt;br&gt;+RussianLevel&lt;br&gt;+Allergies String" style="align=left;strokeColor=none;fillColor=none;spacingLeft=4;fontSize=12;verticalAlign=top;resizable=0;rotatable=0;part=1;html=1;" vertex="1" parent="vtOAAltAW5NXbzfte6_x-8">
          <mxGeometry y="50" width="160" height="110" as="geometry" />
        </mxCell>
        <mxCell id="vtOAAltAW5NXbzfte6_x-14" value="Semester" style="swimlane;childLayout=stackLayout;horizontal=1;startSize=50;horizontalStack=0;rounded=1;fontSize=14;fontStyle=0;strokeWidth=2;resizeParent=0;resizeLast=1;shadow=0;dashed=0;align=center;arcSize=4;whiteSpace=wrap;html=1;" vertex="1" parent="1">
          <mxGeometry x="273" y="60" width="160" height="140" as="geometry" />
        </mxCell>
        <mxCell id="vtOAAltAW5NXbzfte6_x-15" value="+Name&lt;br&gt;+StartDate&lt;br&gt;+EndDate&lt;br&gt;+DaysOff List&amp;lt;Date&amp;gt;&lt;br&gt;+RegistrationFee Int" style="align=left;strokeColor=none;fillColor=none;spacingLeft=4;fontSize=12;verticalAlign=top;resizable=0;rotatable=0;part=1;html=1;" vertex="1" parent="vtOAAltAW5NXbzfte6_x-14">
          <mxGeometry y="50" width="160" height="90" as="geometry" />
        </mxCell>
        <mxCell id="vtOAAltAW5NXbzfte6_x-16" value="Cource" style="swimlane;childLayout=stackLayout;horizontal=1;startSize=50;horizontalStack=0;rounded=1;fontSize=14;fontStyle=0;strokeWidth=2;resizeParent=0;resizeLast=1;shadow=0;dashed=0;align=center;arcSize=4;whiteSpace=wrap;html=1;" vertex="1" parent="1">
          <mxGeometry x="503" y="40" width="160" height="160" as="geometry" />
        </mxCell>
        <mxCell id="vtOAAltAW5NXbzfte6_x-17" value="+Name&lt;br&gt;+Semester&lt;br&gt;+Description&lt;br&gt;+IsForKids Boolean&lt;br&gt;+PriceForOneClass Int&lt;br&gt;+MaterialsPrice Int" style="align=left;strokeColor=none;fillColor=none;spacingLeft=4;fontSize=12;verticalAlign=top;resizable=0;rotatable=0;part=1;html=1;" vertex="1" parent="vtOAAltAW5NXbzfte6_x-16">
          <mxGeometry y="50" width="160" height="110" as="geometry" />
        </mxCell>
        <mxCell id="vtOAAltAW5NXbzfte6_x-32" style="edgeStyle=orthogonalEdgeStyle;rounded=0;orthogonalLoop=1;jettySize=auto;html=1;entryX=0.5;entryY=1;entryDx=0;entryDy=0;startArrow=ERoneToMany;startFill=0;endArrow=ERmandOne;endFill=0;" edge="1" parent="1" source="vtOAAltAW5NXbzfte6_x-18" target="vtOAAltAW5NXbzfte6_x-17">
          <mxGeometry relative="1" as="geometry" />
        </mxCell>
        <mxCell id="vtOAAltAW5NXbzfte6_x-18" value="Lesson" style="swimlane;childLayout=stackLayout;horizontal=1;startSize=50;horizontalStack=0;rounded=1;fontSize=14;fontStyle=0;strokeWidth=2;resizeParent=0;resizeLast=1;shadow=0;dashed=0;align=center;arcSize=4;whiteSpace=wrap;html=1;" vertex="1" parent="1">
          <mxGeometry x="503" y="270" width="160" height="140" as="geometry" />
        </mxCell>
        <mxCell id="vtOAAltAW5NXbzfte6_x-19" value="+Cource&lt;br&gt;+Room&lt;br&gt;+Teacher&lt;br&gt;+StartTime&lt;br&gt;+EndTime" style="align=left;strokeColor=none;fillColor=none;spacingLeft=4;fontSize=12;verticalAlign=top;resizable=0;rotatable=0;part=1;html=1;" vertex="1" parent="vtOAAltAW5NXbzfte6_x-18">
          <mxGeometry y="50" width="160" height="90" as="geometry" />
        </mxCell>
        <mxCell id="vtOAAltAW5NXbzfte6_x-30" style="edgeStyle=orthogonalEdgeStyle;rounded=0;orthogonalLoop=1;jettySize=auto;html=1;entryX=0.5;entryY=1;entryDx=0;entryDy=0;endArrow=block;endFill=0;" edge="1" parent="1" source="vtOAAltAW5NXbzfte6_x-20" target="vtOAAltAW5NXbzfte6_x-19">
          <mxGeometry relative="1" as="geometry" />
        </mxCell>
        <mxCell id="vtOAAltAW5NXbzfte6_x-20" value="KidsLessonEnrollment" style="swimlane;childLayout=stackLayout;horizontal=1;startSize=50;horizontalStack=0;rounded=1;fontSize=14;fontStyle=0;strokeWidth=2;resizeParent=0;resizeLast=1;shadow=0;dashed=0;align=center;arcSize=4;whiteSpace=wrap;html=1;" vertex="1" parent="1">
          <mxGeometry x="378" y="485" width="160" height="90" as="geometry" />
        </mxCell>
        <mxCell id="vtOAAltAW5NXbzfte6_x-21" value="+ Students List&amp;lt;Kid&amp;gt;" style="align=left;strokeColor=none;fillColor=none;spacingLeft=4;fontSize=12;verticalAlign=top;resizable=0;rotatable=0;part=1;html=1;" vertex="1" parent="vtOAAltAW5NXbzfte6_x-20">
          <mxGeometry y="50" width="160" height="40" as="geometry" />
        </mxCell>
        <mxCell id="vtOAAltAW5NXbzfte6_x-31" style="edgeStyle=orthogonalEdgeStyle;rounded=0;orthogonalLoop=1;jettySize=auto;html=1;endArrow=block;endFill=0;" edge="1" parent="1" source="vtOAAltAW5NXbzfte6_x-22">
          <mxGeometry relative="1" as="geometry">
            <mxPoint x="583" y="410" as="targetPoint" />
            <Array as="points">
              <mxPoint x="733" y="440" />
              <mxPoint x="584" y="440" />
            </Array>
          </mxGeometry>
        </mxCell>
        <mxCell id="vtOAAltAW5NXbzfte6_x-22" value="AdultsLessonEnrollment" style="swimlane;childLayout=stackLayout;horizontal=1;startSize=50;horizontalStack=0;rounded=1;fontSize=14;fontStyle=0;strokeWidth=2;resizeParent=0;resizeLast=1;shadow=0;dashed=0;align=center;arcSize=4;whiteSpace=wrap;html=1;" vertex="1" parent="1">
          <mxGeometry x="653" y="485" width="160" height="90" as="geometry" />
        </mxCell>
        <mxCell id="vtOAAltAW5NXbzfte6_x-23" value="+ Students List&amp;lt;Adult&amp;gt;" style="align=left;strokeColor=none;fillColor=none;spacingLeft=4;fontSize=12;verticalAlign=top;resizable=0;rotatable=0;part=1;html=1;" vertex="1" parent="vtOAAltAW5NXbzfte6_x-22">
          <mxGeometry y="50" width="160" height="40" as="geometry" />
        </mxCell>
        <mxCell id="vtOAAltAW5NXbzfte6_x-24" value="Family" style="swimlane;childLayout=stackLayout;horizontal=1;startSize=50;horizontalStack=0;rounded=1;fontSize=14;fontStyle=0;strokeWidth=2;resizeParent=0;resizeLast=1;shadow=0;dashed=0;align=center;arcSize=4;whiteSpace=wrap;html=1;" vertex="1" parent="1">
          <mxGeometry x="63" y="730" width="230" height="120" as="geometry" />
        </mxCell>
        <mxCell id="vtOAAltAW5NXbzfte6_x-25" value="+Kids List&amp;lt;Kid&amp;gt;&lt;br&gt;+Parents List&amp;lt;Adult&amp;gt;&lt;br&gt;+DamadgeDepositeAmountCollected Int" style="align=left;strokeColor=none;fillColor=none;spacingLeft=4;fontSize=12;verticalAlign=top;resizable=0;rotatable=0;part=1;html=1;" vertex="1" parent="vtOAAltAW5NXbzfte6_x-24">
          <mxGeometry y="50" width="230" height="70" as="geometry" />
        </mxCell>
        <mxCell id="vtOAAltAW5NXbzfte6_x-28" style="edgeStyle=orthogonalEdgeStyle;rounded=0;orthogonalLoop=1;jettySize=auto;html=1;entryX=1;entryY=0.5;entryDx=0;entryDy=0;endArrow=ERzeroToOne;endFill=0;startArrow=ERoneToMany;startFill=0;" edge="1" parent="1" source="vtOAAltAW5NXbzfte6_x-2" target="vtOAAltAW5NXbzfte6_x-25">
          <mxGeometry relative="1" as="geometry" />
        </mxCell>
        <mxCell id="vtOAAltAW5NXbzfte6_x-33" value="" style="edgeStyle=orthogonalEdgeStyle;rounded=0;orthogonalLoop=1;jettySize=auto;html=1;startArrow=ERoneToMany;startFill=0;endArrow=ERmandOne;endFill=0;" edge="1" parent="1" source="vtOAAltAW5NXbzfte6_x-17" target="vtOAAltAW5NXbzfte6_x-15">
          <mxGeometry relative="1" as="geometry" />
        </mxCell>
        <mxCell id="vtOAAltAW5NXbzfte6_x-34" style="edgeStyle=orthogonalEdgeStyle;rounded=0;orthogonalLoop=1;jettySize=auto;html=1;entryX=0;entryY=0.5;entryDx=0;entryDy=0;endArrow=ERzeroToMany;endFill=0;startArrow=ERzeroToMany;startFill=0;" edge="1" parent="1" source="vtOAAltAW5NXbzfte6_x-9" target="vtOAAltAW5NXbzfte6_x-21">
          <mxGeometry relative="1" as="geometry" />
        </mxCell>
        <mxCell id="vtOAAltAW5NXbzfte6_x-35" style="edgeStyle=orthogonalEdgeStyle;rounded=0;orthogonalLoop=1;jettySize=auto;html=1;entryX=0.5;entryY=1;entryDx=0;entryDy=0;endArrow=ERzeroToMany;endFill=0;startArrow=ERzeroToMany;startFill=0;" edge="1" parent="1" source="vtOAAltAW5NXbzfte6_x-2" target="vtOAAltAW5NXbzfte6_x-23">
          <mxGeometry relative="1" as="geometry" />
        </mxCell>
        <mxCell id="vtOAAltAW5NXbzfte6_x-36" value="SemesterEnrolment" style="swimlane;childLayout=stackLayout;horizontal=1;startSize=50;horizontalStack=0;rounded=1;fontSize=14;fontStyle=0;strokeWidth=2;resizeParent=0;resizeLast=1;shadow=0;dashed=0;align=center;arcSize=4;whiteSpace=wrap;html=1;" vertex="1" parent="1">
          <mxGeometry x="378" y="890" width="160" height="120" as="geometry" />
        </mxCell>
        <mxCell id="vtOAAltAW5NXbzfte6_x-37" value="+Semester&lt;br&gt;+EnrollmentDate&lt;br&gt;+Cources List&amp;lt;Cource&amp;gt;&lt;br&gt;+FirstSchoolDate" style="align=left;strokeColor=none;fillColor=none;spacingLeft=4;fontSize=12;verticalAlign=top;resizable=0;rotatable=0;part=1;html=1;" vertex="1" parent="vtOAAltAW5NXbzfte6_x-36">
          <mxGeometry y="50" width="160" height="70" as="geometry" />
        </mxCell>
        <mxCell id="vtOAAltAW5NXbzfte6_x-44" style="edgeStyle=orthogonalEdgeStyle;rounded=0;orthogonalLoop=1;jettySize=auto;html=1;endArrow=block;endFill=0;" edge="1" parent="1" source="vtOAAltAW5NXbzfte6_x-40" target="vtOAAltAW5NXbzfte6_x-37">
          <mxGeometry relative="1" as="geometry">
            <Array as="points">
              <mxPoint x="263" y="1030" />
              <mxPoint x="458" y="1030" />
            </Array>
          </mxGeometry>
        </mxCell>
        <mxCell id="vtOAAltAW5NXbzfte6_x-40" value="KidSemesterEnrollment" style="swimlane;childLayout=stackLayout;horizontal=1;startSize=50;horizontalStack=0;rounded=1;fontSize=14;fontStyle=0;strokeWidth=2;resizeParent=0;resizeLast=1;shadow=0;dashed=0;align=center;arcSize=4;whiteSpace=wrap;html=1;" vertex="1" parent="1">
          <mxGeometry x="183" y="1050" width="160" height="90" as="geometry" />
        </mxCell>
        <mxCell id="vtOAAltAW5NXbzfte6_x-41" value="+Kid" style="align=left;strokeColor=none;fillColor=none;spacingLeft=4;fontSize=12;verticalAlign=top;resizable=0;rotatable=0;part=1;html=1;" vertex="1" parent="vtOAAltAW5NXbzfte6_x-40">
          <mxGeometry y="50" width="160" height="40" as="geometry" />
        </mxCell>
        <mxCell id="vtOAAltAW5NXbzfte6_x-45" style="edgeStyle=orthogonalEdgeStyle;rounded=0;orthogonalLoop=1;jettySize=auto;html=1;entryX=0.5;entryY=1;entryDx=0;entryDy=0;endArrow=block;endFill=0;" edge="1" parent="1" source="vtOAAltAW5NXbzfte6_x-42" target="vtOAAltAW5NXbzfte6_x-37">
          <mxGeometry relative="1" as="geometry">
            <mxPoint x="453" y="1020" as="targetPoint" />
          </mxGeometry>
        </mxCell>
        <mxCell id="vtOAAltAW5NXbzfte6_x-42" value="AdultSemesterEnrollment" style="swimlane;childLayout=stackLayout;horizontal=1;startSize=50;horizontalStack=0;rounded=1;fontSize=14;fontStyle=0;strokeWidth=2;resizeParent=0;resizeLast=1;shadow=0;dashed=0;align=center;arcSize=4;whiteSpace=wrap;html=1;" vertex="1" parent="1">
          <mxGeometry x="533" y="1050" width="180" height="90" as="geometry" />
        </mxCell>
        <mxCell id="vtOAAltAW5NXbzfte6_x-43" value="+Adult" style="align=left;strokeColor=none;fillColor=none;spacingLeft=4;fontSize=12;verticalAlign=top;resizable=0;rotatable=0;part=1;html=1;" vertex="1" parent="vtOAAltAW5NXbzfte6_x-42">
          <mxGeometry y="50" width="180" height="40" as="geometry" />
        </mxCell>
        <mxCell id="vtOAAltAW5NXbzfte6_x-46" style="edgeStyle=orthogonalEdgeStyle;rounded=0;orthogonalLoop=1;jettySize=auto;html=1;entryX=0;entryY=0.25;entryDx=0;entryDy=0;endArrow=ERzeroToMany;endFill=0;startArrow=ERmandOne;startFill=0;" edge="1" parent="1" source="vtOAAltAW5NXbzfte6_x-9" target="vtOAAltAW5NXbzfte6_x-41">
          <mxGeometry relative="1" as="geometry">
            <Array as="points">
              <mxPoint x="43" y="555" />
              <mxPoint x="43" y="1110" />
            </Array>
          </mxGeometry>
        </mxCell>
        <mxCell id="vtOAAltAW5NXbzfte6_x-48" style="edgeStyle=orthogonalEdgeStyle;rounded=0;orthogonalLoop=1;jettySize=auto;html=1;entryX=1;entryY=0.75;entryDx=0;entryDy=0;endArrow=ERmandOne;endFill=0;" edge="1" parent="1" source="vtOAAltAW5NXbzfte6_x-43" target="vtOAAltAW5NXbzfte6_x-2">
          <mxGeometry relative="1" as="geometry">
            <Array as="points">
              <mxPoint x="753" y="1120" />
              <mxPoint x="753" y="833" />
            </Array>
          </mxGeometry>
        </mxCell>
        <mxCell id="vtOAAltAW5NXbzfte6_x-50" style="edgeStyle=orthogonalEdgeStyle;rounded=0;orthogonalLoop=1;jettySize=auto;html=1;entryX=0;entryY=0.25;entryDx=0;entryDy=0;endArrow=ERmandOne;endFill=0;startArrow=ERzeroToMany;startFill=0;" edge="1" parent="1" source="vtOAAltAW5NXbzfte6_x-37" target="vtOAAltAW5NXbzfte6_x-15">
          <mxGeometry relative="1" as="geometry">
            <Array as="points">
              <mxPoint x="13" y="975" />
              <mxPoint x="13" y="128" />
            </Array>
          </mxGeometry>
        </mxCell>
        <mxCell id="vtOAAltAW5NXbzfte6_x-56" style="edgeStyle=orthogonalEdgeStyle;rounded=0;orthogonalLoop=1;jettySize=auto;html=1;entryX=0.25;entryY=1;entryDx=0;entryDy=0;endArrow=ERmandOne;endFill=0;startArrow=ERmandOne;startFill=0;" edge="1" parent="1" source="vtOAAltAW5NXbzfte6_x-51" target="vtOAAltAW5NXbzfte6_x-37">
          <mxGeometry relative="1" as="geometry" />
        </mxCell>
        <mxCell id="vtOAAltAW5NXbzfte6_x-51" value="SemesterEnrollmentTuition" style="swimlane;childLayout=stackLayout;horizontal=1;startSize=50;horizontalStack=0;rounded=1;fontSize=14;fontStyle=0;strokeWidth=2;resizeParent=0;resizeLast=1;shadow=0;dashed=0;align=center;arcSize=4;whiteSpace=wrap;html=1;" vertex="1" parent="1">
          <mxGeometry x="294" y="1200" width="247" height="160" as="geometry" />
        </mxCell>
        <mxCell id="vtOAAltAW5NXbzfte6_x-52" value="+SemesterEnrollment&lt;br&gt;+IsDamageDepositeRequired&lt;br&gt;+IsSemesterRegistrationFeeRequired&lt;br&gt;+Amount&lt;br&gt;+IsPaid" style="align=left;strokeColor=none;fillColor=none;spacingLeft=4;fontSize=12;verticalAlign=top;resizable=0;rotatable=0;part=1;html=1;" vertex="1" parent="vtOAAltAW5NXbzfte6_x-51">
          <mxGeometry y="50" width="247" height="110" as="geometry" />
        </mxCell>
        <mxCell id="vtOAAltAW5NXbzfte6_x-57" value="" style="edgeStyle=orthogonalEdgeStyle;rounded=0;orthogonalLoop=1;jettySize=auto;html=1;endArrow=ERmandOne;endFill=0;startArrow=ERoneToMany;startFill=0;" edge="1" parent="1" source="vtOAAltAW5NXbzfte6_x-54" target="vtOAAltAW5NXbzfte6_x-52">
          <mxGeometry relative="1" as="geometry" />
        </mxCell>
        <mxCell id="vtOAAltAW5NXbzfte6_x-54" value="SemesterEnrollmentPayment" style="swimlane;childLayout=stackLayout;horizontal=1;startSize=50;horizontalStack=0;rounded=1;fontSize=14;fontStyle=0;strokeWidth=2;resizeParent=0;resizeLast=1;shadow=0;dashed=0;align=center;arcSize=4;whiteSpace=wrap;html=1;" vertex="1" parent="1">
          <mxGeometry x="294" y="1420" width="247" height="170" as="geometry" />
        </mxCell>
        <mxCell id="vtOAAltAW5NXbzfte6_x-55" value="+Tuition&lt;br&gt;+AmountDue&lt;br&gt;+DueDate&lt;br&gt;+AmountPaid&lt;br&gt;+PaidDate&lt;br&gt;+PaymentType&lt;br&gt;+PaymentPicture" style="align=left;strokeColor=none;fillColor=none;spacingLeft=4;fontSize=12;verticalAlign=top;resizable=0;rotatable=0;part=1;html=1;" vertex="1" parent="vtOAAltAW5NXbzfte6_x-54">
          <mxGeometry y="50" width="247" height="120" as="geometry" />
        </mxCell>
      </root>
    </mxGraphModel>
  </diagram>
</mxfile>
